<?xml version="1.0" encoding="iso-8859-1"?>
<!-- Generator: Adobe Illustrator 19.0.0, SVG Export Plug-In . SVG Version: 6.00 Build 0)  -->
<svg version="1.1" id="Layer_1" xmlns="http://www.w3.org/2000/svg" xmlns:xlink="http://www.w3.org/1999/xlink" x="0px" y="0px"
	 viewBox="0 0 511.999 511.999" style="enable-background:new 0 0 511.999 511.999;" xml:space="preserve">
<g>
	<path style="fill:#E673AD;" d="M224.223,483.236c-5.708-2.824-8.898-8.854-8.268-14.957c-7.42-6.22-38.665-16.464-89.389-16.464
		c-35.636,0-69.017,5.444-85.042,13.859c-6.776,3.601-15.162,1.435-19.42-4.932c-4.259-6.381-3.029-14.942,2.868-19.844
		l154.044-128.273c6.972-5.759,17.156-4.096,22.054,3.19l69.836,104.594c3.366,5.049,3.351,11.635-0.029,16.683l-27.572,41.065
		C239.131,484.357,231.008,486.583,224.223,483.236z"/>
	<path style="fill:#E673AD;" d="M318.997,335.661l-69.836-58.158c-7.236-6.03-7.163-17.097,0-23.035l106.994-89.008
		c7.401-6.167,19.105-3.878,23.254,5.371c5.182,11.507,18.073,22.349,28.699,24.821c10.167,2.363,14.88,14.202,9.059,22.917
		L341.037,332.47C336.119,339.832,325.858,341.371,318.997,335.661z"/>
</g>
<path style="fill:#FF80C0;" d="M126.566,511.759c-12.263,0-119.887-1.259-119.887-44.958c0-13.332,7.764-17.348,17.942-25.874
	c1.42-1.186,3.015-2.078,4.727-2.678c20.913-10.288,57.002-16.406,97.219-16.406c12.263,0,119.887,1.259,119.887,44.958
	c0,3.703-0.937,6.469-1.391,7.815C232.165,506.47,160.608,511.759,126.566,511.759z M217.169,469.539h0.293H217.169z"/>
<path style="fill:#35425C;" d="M495.506,124.526c-6.893,0-13.01-4.757-14.59-11.62c-2.854-12.461-14.439-22.573-28.611-22.625
	c-15.047-0.792-25.367,12.814-36.104,23.562c-9.34,9.404-25.581,2.768-25.581-10.595V15.226c0-8.283,6.703-14.986,14.986-14.986
	h89.915c8.283,0,14.986,6.703,14.986,14.986v94.313c0,7.625-5.723,14.035-13.289,14.883
	C496.647,124.496,496.077,124.526,495.506,124.526z"/>
<path style="fill:#5F697F;" d="M420.181,194.552c6.624-6.68-2.837-24.337-10.405-31.772c-7.332-7.332-25.109-17.542-31.889-10.918
	l-0.088,0.088c-14.042,13.902-35.116-7.245-21.162-21.235c0.029-0.015,0.044-0.029,0.059-0.044v-0.015
	c0.044-0.029,0.073-0.059,0.117-0.103l52.875-52.597c11.4-11.385,26.474-17.649,42.47-17.649c0.103,0,0.19,0,0.278,0
	c15.952,0.073,30.894,6.366,42.074,17.737c7.727,7.727,13.157,17.474,15.615,28.128c1.639,4.713,1.873,10.405,1.873,14.152
	c0,15.615-6.176,30.586-17.401,42.191l-53.226,53.226C427.439,229.676,406.134,208.6,420.181,194.552z"/>
<path style="fill:#FF80C0;" d="M367.438,204.957c-20.359-20.359-30.979-53.372-10.962-74.066
	c19.91-19.972,53.507-10.286,74.403,10.61c13.274,13.04,21.293,30.324,21.367,46.144c0.044,11.064-3.819,21.044-10.874,28.099
	C421.53,235.586,388.145,225.665,367.438,204.957z"/>
<path style="fill:#52CED1;" d="M492.213,440.899L157.43,162.152c-8.001-6.626-20.024-3.348-23.621,6.264
	c-4.745,12.697-17.56,23.22-26.65,26.006c-9.658,3-13.547,14.407-8.049,22.64l174.813,261.156c2.81,4.142,7.332,6.337,12.03,6.337
	c9.088,0,15.637-7.549,15.132-16.172c7.127-6.205,38.431-16.566,89.535-16.566l104.492,8.884
	C499.34,454.333,498.096,445.801,492.213,440.899z"/>
<path style="fill:#6EE5E5;" d="M390.619,511.759c-39.967,0-93.31-7.024-112.161-26.84c-4.246-4.459-7.727-11.665-7.727-18.118
	c0-43.699,107.624-44.958,119.887-44.958c40.157,0,76.437,6.19,97.554,16.581c1.609,0.6,3.117,1.435,4.391,2.503
	c9.831,8.246,17.942,12.937,17.942,25.874C510.506,510.5,402.883,511.759,390.619,511.759z"/>
<path style="fill:#465066;" d="M0.985,110.74V15.226c0-8.283,6.703-14.986,14.986-14.986h89.916c8.283,0,14.986,6.703,14.986,14.986
	v87.421c0,13.189-16.055,20.122-25.581,10.595c-12.004-12.004-19.23-22.889-35.563-22.889c-15.257,0-26.844,11.236-29.021,23.108
	C27.408,131.391,0.985,128.895,0.985,110.74z"/>
<path style="fill:#677189;" d="M81.008,220.134c-3.834,0-7.669-1.464-10.595-4.391l-53.051-53.051
	c-13.991-13.99-20.035-33.996-16.259-53.694c0.029-0.337,0.073-0.673,0.132-0.98c2.034-11.02,7.757-21.689,16.128-30.06
	c23.079-23.079,63.441-22.303,85.203,0.176l52.583,52.583c2.927,2.927,4.391,6.762,4.391,10.595
	c0,13.258-16.13,20.047-25.581,10.595c-6.697-6.639-24.281,3.385-31.479,10.698c-7.517,7.389-17.488,25.333-10.874,31.948
	C101.075,204.024,94.239,220.134,81.008,220.134z"/>
<path style="fill:#6EE5E5;" d="M70.413,215.743c-7.097-7.097-10.83-16.727-10.786-27.835c0.073-15.849,8.166-33.221,21.66-46.494
	c13.289-13.522,30.162-21.411,46.129-21.484c0.059,0,0.132,0,0.19,0c10.976,0,20.489,3.731,27.542,10.786
	c11.605,11.605,14.137,30.148,6.644,48.44c-3.659,9.674-9.659,18.673-17.386,26.036c-8.517,8.532-18.44,14.796-28.406,17.883
	C99.91,229.09,82.144,227.499,70.413,215.743z"/>
<g>
</g>
<g>
</g>
<g>
</g>
<g>
</g>
<g>
</g>
<g>
</g>
<g>
</g>
<g>
</g>
<g>
</g>
<g>
</g>
<g>
</g>
<g>
</g>
<g>
</g>
<g>
</g>
<g>
</g>
</svg>
