<?xml version="1.0" encoding="iso-8859-1"?>
<!-- Generator: Adobe Illustrator 19.0.0, SVG Export Plug-In . SVG Version: 6.00 Build 0)  -->
<svg version="1.1" id="Capa_1" xmlns="http://www.w3.org/2000/svg" xmlns:xlink="http://www.w3.org/1999/xlink" x="0px" y="0px"
	 viewBox="0 0 384 384" style="enable-background:new 0 0 384 384;" xml:space="preserve">
<g>
	<g>
		<path d="M152,152c-8.832,0-16,7.168-16,16v8c0,8.832,7.168,16,16,16c8.832,0,16-7.168,16-16v-8C168,159.168,160.832,152,152,152z"
			/>
	</g>
</g>
<g>
	<g>
		<path d="M232,152c-8.832,0-16,7.168-16,16v8c0,8.832,7.168,16,16,16c8.832,0,16-7.168,16-16v-8C248,159.168,240.832,152,232,152z"
			/>
	</g>
</g>
<g>
	<g>
		<path d="M232,64c-8.832,0-16,7.168-16,16v8c0,8.832,7.168,16,16,16c8.832,0,16-7.168,16-16v-8C248,71.168,240.832,64,232,64z"/>
	</g>
</g>
<g>
	<g>
		<path d="M152,64c-8.832,0-16,7.168-16,16v8c0,8.832,7.168,16,16,16c8.832,0,16-7.168,16-16v-8C168,71.168,160.832,64,152,64z"/>
	</g>
</g>
<g>
	<g>
		<path d="M352,130.8V99.04C352,44.432,307.568,0,252.96,0H131.04C76.432,0,32,44.432,32,99.04v31.76
			C13.384,137.408,0,155.144,0,176v80v64c0,8.832,7.168,16,16,16h32v32c0,8.832,7.168,16,16,16h32c8.832,0,16-7.168,16-16v-32h160
			v32c0,8.832,7.168,16,16,16h32c8.832,0,16-7.168,16-16v-32h32c8.832,0,16-7.168,16-16v-64v-80
			C384,155.144,370.616,137.408,352,130.8z M64,99.04C64,62.072,94.072,32,131.04,32h121.92C289.928,32,320,62.072,320,99.04v31.832
			c-6.616,2.352-12.768,6.096-18.032,11.256C292.96,151.264,288,163.288,288,176v64H96v-64c0-12.712-4.96-24.736-14.168-34.072
			C76.68,136.88,70.488,133.136,64,130.856V99.04z M352,256v48h-32h-16h-16H96H80H64H32v-48v-80c0-8.856,7.392-16.048,15.96-16.008
			c0.008,0,0.024,0.008,0.04,0.008c0.096,0,0.176-0.024,0.272-0.024c1.232,0.032,2.488,0.208,3.744,0.56
			c2.744,0.704,5.312,2.176,7.232,4.056C62.312,167.704,64,171.752,64,176v80c0,8.832,7.168,16,16,16h224c8.832,0,16-7.168,16-16
			v-80c0-4.248,1.688-8.296,4.552-11.208c2.128-2.08,4.696-3.552,7.768-4.344c1.072-0.304,2.272-0.448,3.68-0.448
			c8.824,0,16,7.176,16,16V256z"/>
	</g>
</g>
<g>
</g>
<g>
</g>
<g>
</g>
<g>
</g>
<g>
</g>
<g>
</g>
<g>
</g>
<g>
</g>
<g>
</g>
<g>
</g>
<g>
</g>
<g>
</g>
<g>
</g>
<g>
</g>
<g>
</g>
</svg>
